<?xml version="1.0" standalone="no"?>
<!DOCTYPE svg PUBLIC "-//W3C//DTD SVG 20010904//EN"
 "http://www.w3.org/TR/2001/REC-SVG-20010904/DTD/svg10.dtd">
<svg version="1.0" xmlns="http://www.w3.org/2000/svg"
 width="512.000000pt" height="512.000000pt" viewBox="0 0 512.000000 512.000000"
 preserveAspectRatio="xMidYMid meet">

<g transform="translate(0.000000,512.000000) scale(0.100000,-0.100000)"
fill="#000000" stroke="none">
<path d="M2363 4814 c-262 -57 -513 -255 -619 -490 -10 -21 -19 -41 -21 -42
-1 -2 -22 10 -46 27 -230 158 -525 199 -792 110 -144 -48 -226 -100 -345 -219
-115 -114 -167 -198 -208 -331 -143 -468 128 -1114 653 -1556 181 -153 446
-319 632 -397 l89 -37 13 -62 c49 -242 222 -593 456 -926 148 -210 418 -536
482 -580 21 -15 46 -23 75 -23 88 0 506 157 793 297 448 219 713 425 949 739
299 397 419 854 314 1195 -40 131 -94 218 -203 326 -140 140 -270 210 -458
249 -147 31 -350 16 -481 -35 -70 -27 -164 -76 -203 -105 -17 -13 -34 -24 -37
-24 -3 0 -15 18 -26 39 -20 39 -20 39 1 98 29 86 66 281 80 423 47 493 -108
958 -393 1177 -144 110 -314 164 -517 162 -69 -1 -154 -7 -188 -15z m387 -324
c72 -27 177 -106 228 -172 115 -151 182 -399 182 -678 0 -124 -22 -316 -39
-333 -4 -4 -28 5 -52 21 -166 112 -339 159 -549 149 -137 -6 -217 -28 -350
-93 -173 -86 -322 -264 -409 -489 -67 -174 -101 -359 -101 -557 l0 -108 -87
44 c-107 54 -243 142 -343 224 -122 99 -301 282 -367 375 -142 201 -250 473
-269 673 -8 86 15 210 55 298 55 122 188 232 336 279 54 17 93 21 175 21 179
-2 319 -61 470 -200 113 -104 181 -118 255 -53 27 24 40 48 61 117 76 251 221
415 429 487 107 37 269 34 375 -5z m-55 -1315 c180 -46 336 -175 419 -346 24
-52 51 -120 59 -151 28 -108 78 -158 160 -158 50 0 69 11 144 81 155 144 306
209 488 209 110 0 185 -18 279 -68 228 -119 332 -384 261 -664 -78 -309 -202
-526 -436 -765 -250 -255 -614 -463 -1154 -658 l-130 -47 -48 52 c-144 157
-360 448 -481 649 -134 223 -202 389 -257 626 -43 183 -51 424 -21 600 24 138
61 262 105 354 39 79 136 185 213 231 108 65 271 87 399 55z"/>

<path class='heart2' d="M3955 4586 c-16 -11 -20 -29 -23 -89 -4 -75 -4 -75 -53 -123 -84 -82
-61 -134 59 -134 62 0 64 -1 115 -49 63 -59 90 -67 121 -35 12 11 16 35 16 84
l0 68 50 48 c40 38 50 54 50 80 0 47 -29 64 -111 64 l-66 0 -45 50 c-48 53
-77 62 -113 36z"/>
<path class='heart' d="M4097 3795 c-48 -17 -76 -41 -93 -82 -28 -66 -12 -128 46 -176 66
-56 168 -40 217 34 22 33 25 47 21 94 -4 46 -10 61 -38 90 -19 19 -41 37 -49
39 -50 13 -70 13 -104 1z"/>

<path class='heart' d="M780 1568 c-97 -66 -89 -213 14 -262 101 -48 216 23 216 133 0 119
-134 194 -230 129z"/>
<path class='heart2' d="M1357 1212 c-10 -10 -24 -39 -33 -65 -18 -54 -30 -65 -98 -93 -98
-39 -97 -105 2 -138 59 -20 73 -35 97 -99 22 -59 55 -84 93 -71 19 7 32 25 52
73 28 69 28 69 108 102 38 16 54 28 58 46 11 42 -9 66 -76 93 -62 25 -65 28
-88 86 -13 32 -31 65 -40 72 -23 17 -56 15 -75 -6z"/>
</g>
</svg>
