<?xml version="1.0" standalone="no"?>
<!DOCTYPE svg PUBLIC "-//W3C//DTD SVG 20010904//EN"
 "http://www.w3.org/TR/2001/REC-SVG-20010904/DTD/svg10.dtd">
<svg version="1.0" xmlns="http://www.w3.org/2000/svg"
 width="512.000000pt" height="512.000000pt" viewBox="0 0 512.000000 512.000000"
 preserveAspectRatio="xMidYMid meet">

<g transform="translate(0.000000,512.000000) scale(0.100000,-0.100000)"
fill="#000000" stroke="none">
<path d="M3260 4712 c-30 -10 -74 -31 -98 -47 -99 -65 -155 -206 -131 -325 21
-103 63 -163 235 -340 88 -91 192 -198 230 -239 108 -114 187 -142 256 -89 51
39 149 137 330 330 203 216 223 250 223 383 0 78 -4 97 -28 146 -34 69 -100
132 -175 167 -48 22 -71 26 -142 26 -103 0 -176 -25 -244 -85 l-46 -41 -51 41
c-100 79 -249 110 -359 73z m758 -71 c9 -5 -28 -31 -113 -80 -70 -40 -128 -71
-130 -69 -6 6 199 158 214 158 9 0 22 -4 29 -9z m-568 -5 c0 -4 -123 -76 -180
-106 -24 -13 -24 -12 -10 6 82 105 81 104 137 104 29 0 53 -2 53 -4z m160 -97
c0 -7 -224 -139 -237 -139 -4 0 35 42 86 94 l94 94 28 -21 c16 -11 29 -24 29
-28z m530 26 c7 -9 11 -17 9 -18 -2 -2 -58 -34 -124 -72 -66 -38 -131 -75
-145 -84 -46 -27 -5 9 113 101 61 48 117 87 123 87 6 1 17 -6 24 -14z m-911
-195 c-40 -44 -77 -79 -83 -77 -6 2 -12 17 -14 34 -3 28 2 33 75 76 43 25 82
45 86 46 5 1 -24 -35 -64 -79z m981 -24 c0 -19 -16 -33 -90 -75 -49 -28 -93
-51 -96 -51 -6 0 176 148 184 150 1 0 2 -11 2 -24z m-805 -34 c-6 -5 -49 -38
-96 -75 -75 -57 -89 -64 -99 -52 -7 9 -11 17 -9 19 15 12 196 115 204 116 5 0
5 -3 0 -8z m165 -46 c-30 -27 -242 -186 -250 -186 -9 0 -34 29 -29 34 8 7 284
166 289 166 2 0 -2 -6 -10 -14z m135 -185 c-6 -5 -57 -46 -115 -90 -80 -61
-108 -77 -118 -69 -7 6 -11 15 -9 21 1 5 54 40 117 77 107 64 148 84 125 61z
m-290 -61 c-3 -5 -11 -10 -16 -10 -6 0 -7 5 -4 10 3 6 11 10 16 10 6 0 7 -4 4
-10z m444 -3 c-5 -4 -208 -176 -236 -201 -23 -19 -23 -19 -48 4 -14 13 -21 28
-17 32 15 15 297 176 301 172 2 -2 2 -5 0 -7z m-179 -282 c-7 -9 -15 -13 -19
-10 -3 3 1 10 9 15 21 14 24 12 10 -5z"/>
<path d="M1233 4046 c-194 -37 -360 -170 -448 -361 -41 -89 -55 -154 -55 -262
0 -181 72 -338 223 -485 37 -38 65 -68 60 -68 -4 0 -111 -18 -238 -39 -126
-22 -286 -44 -355 -51 -206 -19 -285 -42 -333 -99 -72 -86 -26 -197 127 -305
33 -24 126 -78 205 -121 79 -42 226 -128 326 -191 l182 -114 136 -393 c75
-215 159 -477 186 -582 82 -315 125 -416 225 -522 48 -52 64 -63 91 -63 46 0
93 18 149 58 41 29 605 494 672 554 21 19 22 18 184 -102 187 -139 271 -191
354 -220 68 -23 152 -26 199 -6 40 16 138 144 372 486 92 135 194 279 225 320
31 41 262 361 512 710 251 349 498 682 548 740 232 265 326 450 274 539 -56
94 -267 94 -644 0 -85 -21 -429 -86 -765 -143 -335 -58 -624 -108 -641 -111
l-32 -5 26 67 c36 97 38 256 3 361 -103 315 -455 492 -762 384 -57 -20 -267
-156 -276 -178 -4 -12 -94 -68 -98 -62 -55 83 -144 154 -260 208 -131 61 -249
79 -372 56z m1209 -84 c12 -5 -115 -83 -438 -270 -251 -145 -458 -262 -460
-260 -5 6 322 248 336 248 6 0 42 27 78 61 62 57 259 181 327 207 50 19 128
25 157 14z m-1142 -16 c0 -2 -37 -25 -82 -51 -46 -26 -99 -57 -118 -68 -30
-17 -27 -12 25 42 33 34 74 66 90 70 32 10 85 14 85 7z m215 -25 c16 -6 7 -15
-55 -51 -41 -24 -109 -63 -150 -87 -41 -23 -78 -43 -83 -43 -5 0 44 43 108 95
115 93 136 103 180 86z m1105 -7 c22 -9 40 -19 40 -23 0 -3 -145 -89 -322
-191 -416 -240 -425 -244 -412 -231 9 10 644 459 651 460 2 1 21 -6 43 -15z
m-961 -63 l24 -18 -94 -55 c-106 -62 -239 -138 -254 -146 -5 -3 -4 1 3 9 16
18 285 228 292 228 3 0 16 -8 29 -18z m1099 -33 c-4 -12 -365 -227 -383 -228
-5 0 71 54 170 120 165 110 223 140 213 108z m-984 -67 c17 -18 12 -22 -126
-101 -79 -46 -159 -92 -178 -103 -25 -14 -31 -15 -20 -4 19 20 293 226 301
227 3 0 14 -9 23 -19z m1061 -10 c3 -5 -36 -34 -87 -64 -127 -74 -214 -122
-206 -113 10 12 271 184 280 185 4 1 9 -3 13 -8z m-1855 -92 c-25 -22 -71 -60
-102 -85 -47 -37 -58 -42 -58 -27 0 11 6 26 13 35 11 15 175 117 187 117 3 0
-15 -18 -40 -40z m1900 2 c0 -5 -7 -12 -16 -15 -14 -5 -15 -4 -4 9 14 17 20
19 20 6z m-1846 -143 c-44 -34 -107 -83 -141 -111 -50 -38 -64 -45 -69 -33 -3
8 -4 22 -2 31 3 15 260 174 282 175 5 0 -27 -28 -70 -62z m1884 15 l-3 -36
-309 -179 c-170 -98 -311 -177 -312 -175 -6 5 600 425 614 426 9 1 12 -10 10
-36z m-1738 -78 c0 -2 -66 -54 -147 -115 -134 -101 -149 -109 -160 -94 -7 10
-13 20 -13 24 0 4 307 188 318 190 1 0 2 -2 2 -5z m535 -21 c-11 -8 -159 -112
-329 -231 l-308 -215 -26 26 c-17 16 -23 29 -17 35 12 11 688 401 695 401 3 0
-4 -8 -15 -16z m3054 2 c-2 -2 -195 -74 -429 -159 -508 -185 -1893 -691 -1935
-707 -21 -7 44 63 207 227 130 131 250 254 267 274 20 23 43 38 63 42 1001
171 1252 216 1548 277 218 44 290 56 279 46z m191 -68 c-1 -21 -37 -96 -67
-136 -15 -20 -59 -75 -99 -122 -71 -84 -126 -160 -449 -610 -89 -124 -370
-515 -624 -868 -254 -354 -487 -684 -517 -732 -66 -108 -92 -130 -149 -130
-79 0 -143 31 -315 155 -77 56 -286 190 -518 334 -48 29 -112 69 -142 89 -30
19 -88 56 -127 81 -40 25 -101 64 -135 87 -35 22 -72 43 -82 47 -11 5 -15 11
-10 16 5 5 299 170 654 368 355 198 902 504 1215 679 314 174 745 416 960 536
214 120 393 218 397 218 5 0 8 -6 8 -12z m-3836 -138 l-159 -121 -18 22 c-18
22 -17 22 85 82 57 33 132 77 168 98 36 21 69 38 74 39 4 0 -63 -54 -150 -120z
m3186 -94 c-52 -30 -423 -237 -825 -461 -401 -224 -979 -547 -1284 -717 -305
-171 -560 -312 -568 -315 -12 -5 -83 37 -412 245 -132 84 -142 92 -120 101
104 44 553 211 568 211 10 0 26 -9 37 -21 25 -28 80 -56 128 -64 79 -15 211
77 351 246 28 33 65 48 590 239 308 112 796 290 1085 396 289 106 530 193 535
193 6 0 -33 -23 -85 -53z m-2785 5 c-9 -8 -323 -217 -351 -234 -7 -4 -17 -1
-23 7 -10 11 24 34 181 125 185 106 214 122 193 102z m1270 -51 c-10 -11 -43
-34 -74 -51 -31 -18 -67 -39 -81 -47 -51 -32 0 11 81 67 84 59 109 69 74 31z
m-735 -7 c-14 -10 -162 -113 -330 -230 l-305 -212 -28 26 -27 27 82 47 c46 27
202 118 348 203 241 140 326 186 260 139z m-544 -80 c-4 -5 -67 -47 -139 -95
-81 -53 -136 -83 -141 -78 -13 13 -21 7 139 99 135 78 157 89 141 74z m-334
-265 c70 -62 405 -436 410 -458 2 -7 -124 -58 -306 -125 l-310 -114 -140 88
c-78 48 -213 125 -300 170 -305 158 -391 228 -365 298 17 47 100 73 305 98 93
11 584 92 633 104 2 1 35 -27 73 -61z m153 32 c-3 -5 -12 -10 -18 -10 -7 0 -6
4 3 10 19 12 23 12 15 0z m630 -129 c-6 -5 -80 -57 -165 -115 -119 -81 -157
-102 -168 -94 -7 6 -9 15 -5 19 9 8 335 198 343 198 2 1 0 -3 -5 -8z m225 -6
c0 -3 -97 -78 -216 -167 l-215 -161 -27 27 c-15 16 -22 30 -17 32 6 3 114 65
240 139 246 144 235 137 235 130z m-676 -49 c-10 -8 -21 -12 -24 -10 -5 6 21
24 34 24 6 0 1 -6 -10 -14z m490 -247 c-10 -12 -45 -44 -76 -71 -43 -37 -63
-48 -78 -43 -11 3 -20 10 -20 15 0 8 176 119 189 120 2 0 -4 -10 -15 -21z
m-832 -535 c68 -42 152 -95 188 -118 36 -23 97 -62 137 -87 l72 -44 0 -60 c0
-33 -4 -134 -9 -225 -5 -91 -12 -239 -16 -330 -3 -91 -9 -210 -13 -265 l-6
-100 -37 57 c-48 72 -81 164 -158 443 -21 76 -52 158 -173 458 -53 129 -117
315 -117 337 0 6 2 10 5 10 3 0 60 -34 127 -76z m657 -415 c80 -51 162 -102
181 -114 78 -50 208 -132 263 -165 31 -19 56 -37 55 -40 -6 -13 -334 -314
-403 -368 -100 -81 -212 -149 -263 -160 l-43 -10 6 71 c5 75 20 402 30 662 6
158 12 215 22 215 3 0 72 -41 152 -91z"/>
</g>
</svg>
